<svg xmlns="http://www.w3.org/2000/svg" width="24" height="24" viewBox="0 0 960 960">
  <path fill="#e3e3e3" d="m661.17,455.48 l-68.56,-121.7 68.56,-121.13h134.57l69.13,121.13 -69.13,121.7L661.17,455.48ZM412.43,601.7 L343.87,480l68.56,-121.7h135.7L616.7,480l-68.57,121.7h-135.7ZM412.43,309.83 L343.87,188.13L412.43,67h135.14l68.56,121.13 -68.56,121.7L412.43,309.83ZM164.26,455.48l-69.13,-121.7 69.13,-121.13h136.26l66.7,121.13 -66.7,121.7L164.26,455.48ZM164.26,747.35L95.13,626.22l69.13,-121.7h136.26l66.7,121.7 -66.7,121.13L164.26,747.35ZM414.74,893l-70.87,-121.13 68.56,-121.7h135.14l68.56,121.7L547.57,893L414.74,893ZM661.17,747.35 L592.61,626.22 661.17,504.52h134.57l69.13,121.7 -69.13,121.13L661.17,747.35Z"/>
</svg>
